<svg xmlns="http://www.w3.org/2000/svg" viewBox="0 0 100 100"><style>.st2{display:inline}.st3{opacity:.7}.st3,.st4{fill:#fff}</style><g id="Käufer_Mieterfinder"><linearGradient id="SVGID_2_" gradientUnits="userSpaceOnUse" x1="80.5" y1="109.9" x2="19.5" y2="-9.9"><stop offset="0" stop-color="#1a1e35"/><stop offset="1" stop-color="#4f5995"/></linearGradient><path fill="url(#SVGID_2_)" d="M0 0h100v100H0z"/><path class="st4" d="M78.6 36.4L69.2 27a1 1 0 00-.7-.3H51.6v1.9h16v6.6c0 1.6 1.3 2.8 2.8 2.8H77v33c0 1.6-1.3 2.8-2.8 2.8H54.4V59.7c0-6.4-4.9-11.7-11.3-12.2v-2a4.8 4.8 0 003.8-4.6V39c1.6 0 2.8-1.3 2.8-2.8v-8.5c0-2.6-2.1-4.7-4.7-4.7H28.1c-.5 0-.9.4-.9.9 0 1.4.4 2.9 1.1 4.1a2.9 2.9 0 00-1.4 3.2l.8 3.3c-.6.9-.7 2-.2 2.9.5 1 1.4 1.6 2.5 1.6v1.9c0 2.2 1.6 4.2 3.8 4.6v2c-6.4.5-11.3 5.8-11.3 12.2v18.8c0 .5.4.9.9.9h30.1c.5 0 .9-.4.9-.9v-2.8h19.8c2.6 0 4.7-2.1 4.7-4.7V37.1a1 1 0 00-.3-.7zM46.7 53.7l-2.2 1.4c-.2.2-.4.4-.4.7 0 .3.1.6.3.8l1.1 1.1-4.7 3.6 4.1-9.8a1 1 0 00-.1-.9l-.8-1.2.9.2 1.8 4.1zm-14.3 1.4l-2.2-1.4 1.7-4 .9-.2-.8 1.2a1 1 0 00-.1.9l4.1 9.8-4.7-3.6 1.1-1.1c.2-.2.3-.5.3-.8.1-.3-.1-.6-.3-.8zm8.9-9.5v2.5l-2.8 3.5-2.8-3.5v-2.5h5.6zM34.7 50l2.4 2.9-2 1.5-1.2-3.1.8-1.3zm3.7 4.3l2.6 1.9-2.6 5.8-2.6-5.8 2.6-1.9zm3.4.1l-2-1.5 2.4-2.9.9 1.3-1.3 3.1zm5.1-17.3v-1.9c.5 0 .9.4.9.9 0 .6-.4 1-.9 1zM45 24.9c1.6 0 2.8 1.3 2.8 2.8v5.8l-.9-.2v-.9c0-.5-.4-.9-.9-.9a3.3 3.3 0 01-2.9-2.2c-.1-.3-.4-.5-.7-.6a.8.8 0 00-.9.3c-1.3 1.3-4.7 1.6-5.9 1.6-3.3 0-6-2.4-6.5-5.6H45zm-15 5.3v3.1l-.7.1-.7-2.7c-.1-.3 0-.6.2-.8.1-.2.3-.3.5-.3l.7.6zm-1 6c0-.5.4-.9.9-.9v1.9c-.4-.1-.9-.5-.9-1zm2.9 4.7v-9.4c1.2.6 2.5.9 3.8.9.4 0 4 0 6.3-1.4.7 1.2 1.8 2 3.2 2.3v7.6c0 1.6-1.3 2.8-2.8 2.8h-7.5c-1.8 0-3-1.3-3-2.8zm-7.6 18.8c0-3.6 1.9-7 5.1-8.9l-1.2 2.9c-.2.4 0 .9.3 1.2l1.9 1.2-1.1 1.1a1 1 0 00-.3.7c0 .3.1.5.4.7l8.1 6.3v12.7H30V59.7h-1.9v17.9h-3.8V59.7zm28.2 17.9h-3.8V59.7h-1.9v17.9h-7.5V64.9l8.1-6.3.4-.7a1 1 0 00-.3-.7l-1.1-1.1 1.9-1.2c.4-.3.5-.7.3-1.2l-1.2-2.9c3.1 1.9 5.1 5.2 5.1 8.9v17.9zm17-42.4V30l6.2 6.2h-5.3c-.5 0-.9-.5-.9-1z"/><path class="st3" d="M51.6 40.9h1.9v8.5c0 .5.4.9.9.9h11.3c.5 0 .9-.4.9-.9v-8.5h1.9c.4 0 .8-.3.9-.6.1-.4 0-.8-.3-1l-8.5-6.6c-.3-.3-.8-.3-1.2 0L51 39.2c-.3.2-.4.7-.3 1 .1.4.5.7.9.7zm7.5 7.5v-3.8H61v3.8h-1.9zm5.7 0h-1.9v-4.7c0-.5-.4-.9-.9-.9h-3.8c-.5 0-.9.4-.9.9v4.7h-1.9v-7.5h9.4v7.5zm-4.7-13.9l5.7 4.5H54.3l5.8-4.5zM57.3 54H61v1.9h-3.8V54zM63.4 53.7H71v1.9h-7.5v-1.9zM57.3 58.7h13.2v1.9H57.3v-1.9zM65.8 64.5c-.6.3-1.4.3-2 0a4 4 0 00-1.8-.4V66l1 .2c1.1.6 2.5.6 3.6 0 .6-.3 1.4-.3 2 0a4 4 0 001.8.4v-1.9l-1-.2a3.8 3.8 0 00-3.6 0z"/></g></svg>